<svg width="25" height="25" viewBox="0 0 25 25" fill="none" xmlns="http://www.w3.org/2000/svg">
<path d="M14.6357 2.08333C16.7589 2.30705 18.7422 3.24875 20.2575 4.75269C21.7728 6.25663 22.7294 8.23272 22.9691 10.3542M14.6357 6.25C15.6602 6.45202 16.6003 6.95732 17.3341 7.70032C18.0678 8.44332 18.5612 9.38972 18.7503 10.4167M22.917 17.625V20.75C22.9182 21.0401 22.8587 21.3273 22.7425 21.5931C22.6263 21.8589 22.4558 22.0975 22.2421 22.2936C22.0283 22.4897 21.7759 22.639 21.5011 22.732C21.2263 22.8249 20.9351 22.8594 20.6462 22.8333C17.4408 22.485 14.3618 21.3897 11.6566 19.6354C9.13972 18.0361 7.00588 15.9023 5.40657 13.3854C3.64613 10.6679 2.55057 7.57395 2.20865 4.35417C2.18262 4.06611 2.21685 3.77579 2.30917 3.50169C2.40149 3.22759 2.54987 2.97572 2.74486 2.76211C2.93986 2.54849 3.1772 2.37782 3.44177 2.26096C3.70633 2.1441 3.99234 2.08361 4.28157 2.08333H7.40657C7.91209 2.07836 8.40218 2.25737 8.78549 2.58701C9.16879 2.91665 9.41915 3.37442 9.4899 3.875C9.6218 4.87507 9.86641 5.85701 10.2191 6.80208C10.3592 7.17492 10.3895 7.58012 10.3065 7.96967C10.2234 8.35921 10.0304 8.71678 9.75032 9L8.4274 10.3229C9.91027 12.9308 12.0695 15.09 14.6774 16.5729L16.0003 15.25C16.2835 14.9699 16.6411 14.7769 17.0307 14.6938C17.4202 14.6108 17.8254 14.6411 18.1982 14.7812C19.1433 15.1339 20.1252 15.3785 21.1253 15.5104C21.6313 15.5818 22.0934 15.8367 22.4238 16.2266C22.7541 16.6164 22.9297 17.1141 22.917 17.625Z" stroke="#121212" stroke-width="2" stroke-linecap="round" stroke-linejoin="round"/>
</svg>
