<svg width="224" height="81" viewBox="0 0 224 81" fill="none" xmlns="http://www.w3.org/2000/svg">
<path d="M111.994 16.516V46H104.812V28.318L98.218 46H92.422L85.786 28.276V46H78.604V16.516H87.088L95.362 36.928L103.552 16.516H111.994ZM124.341 22.27V28.234H133.959V33.778H124.341V40.246H135.219V46H117.159V16.516H135.219V22.27H124.341ZM146.937 16.516V34.156C146.937 35.92 147.371 37.278 148.239 38.23C149.107 39.182 150.381 39.658 152.061 39.658C153.741 39.658 155.029 39.182 155.925 38.23C156.821 37.278 157.269 35.92 157.269 34.156V16.516H164.451V34.114C164.451 36.746 163.891 38.972 162.771 40.792C161.651 42.612 160.139 43.984 158.235 44.908C156.359 45.832 154.259 46.294 151.935 46.294C149.611 46.294 147.525 45.846 145.677 44.95C143.857 44.026 142.415 42.654 141.351 40.834C140.287 38.986 139.755 36.746 139.755 34.114V16.516H146.937Z" fill="white"/>
<path d="M82.126 59.57V62.694H87.164V65.598H82.126V68.986H87.824V72H78.364V56.556H87.824V59.57H82.126ZM104.082 72H100.32L94.0283 62.474V72H90.2663V56.556H94.0283L100.32 66.126V56.556H104.082V72ZM117.061 61.44C116.783 60.9267 116.379 60.538 115.851 60.274C115.338 59.9953 114.729 59.856 114.025 59.856C112.808 59.856 111.833 60.2593 111.099 61.066C110.366 61.858 109.999 62.9213 109.999 64.256C109.999 65.6787 110.381 66.7933 111.143 67.6C111.921 68.392 112.984 68.788 114.333 68.788C115.257 68.788 116.035 68.5533 116.665 68.084C117.311 67.6147 117.78 66.94 118.073 66.06H113.299V63.288H121.483V66.786C121.205 67.7247 120.728 68.5973 120.053 69.404C119.393 70.2107 118.55 70.8633 117.523 71.362C116.497 71.8607 115.338 72.11 114.047 72.11C112.522 72.11 111.158 71.78 109.955 71.12C108.767 70.4453 107.836 69.514 107.161 68.326C106.501 67.138 106.171 65.7813 106.171 64.256C106.171 62.7307 106.501 61.374 107.161 60.186C107.836 58.9833 108.767 58.052 109.955 57.392C111.143 56.7173 112.5 56.38 114.025 56.38C115.873 56.38 117.428 56.8273 118.689 57.722C119.965 58.6167 120.809 59.856 121.219 61.44H117.061ZM127.329 56.556V72H123.567V56.556H127.329ZM143.871 72H140.109L133.817 62.474V72H130.055V56.556H133.817L140.109 66.126V56.556H143.871V72ZM150.36 59.57V62.694H155.398V65.598H150.36V68.986H156.058V72H146.598V56.556H156.058V59.57H150.36ZM162.263 59.57V62.694H167.301V65.598H162.263V68.986H167.961V72H158.501V56.556H167.961V59.57H162.263ZM178.279 72L175.067 66.17H174.165V72H170.403V56.556H176.717C177.934 56.556 178.968 56.7687 179.819 57.194C180.684 57.6193 181.33 58.206 181.755 58.954C182.18 59.6873 182.393 60.5087 182.393 61.418C182.393 62.4447 182.1 63.3613 181.513 64.168C180.941 64.9747 180.09 65.5467 178.961 65.884L182.525 72H178.279ZM174.165 63.508H176.497C177.186 63.508 177.7 63.3393 178.037 63.002C178.389 62.6647 178.565 62.188 178.565 61.572C178.565 60.9853 178.389 60.5233 178.037 60.186C177.7 59.8487 177.186 59.68 176.497 59.68H174.165V63.508ZM188.517 56.556V72H184.755V56.556H188.517ZM205.059 72H201.297L195.005 62.474V72H191.243V56.556H195.005L201.297 66.126V56.556H205.059V72ZM218.038 61.44C217.759 60.9267 217.356 60.538 216.828 60.274C216.315 59.9953 215.706 59.856 215.002 59.856C213.785 59.856 212.809 60.2593 212.076 61.066C211.343 61.858 210.976 62.9213 210.976 64.256C210.976 65.6787 211.357 66.7933 212.12 67.6C212.897 68.392 213.961 68.788 215.31 68.788C216.234 68.788 217.011 68.5533 217.642 68.084C218.287 67.6147 218.757 66.94 219.05 66.06H214.276V63.288H222.46V66.786C222.181 67.7247 221.705 68.5973 221.03 69.404C220.37 70.2107 219.527 70.8633 218.5 71.362C217.473 71.8607 216.315 72.11 215.024 72.11C213.499 72.11 212.135 71.78 210.932 71.12C209.744 70.4453 208.813 69.514 208.138 68.326C207.478 67.138 207.148 65.7813 207.148 64.256C207.148 62.7307 207.478 61.374 208.138 60.186C208.813 58.9833 209.744 58.052 210.932 57.392C212.12 56.7173 213.477 56.38 215.002 56.38C216.85 56.38 218.405 56.8273 219.666 57.722C220.942 58.6167 221.785 59.856 222.196 61.44H218.038Z" fill="white"/>
<path fill-rule="evenodd" clip-rule="evenodd" d="M31.5 75C48.897 75 63 60.897 63 43.5C63 26.103 48.897 12 31.5 12C14.103 12 0 26.103 0 43.5C0 60.897 14.103 75 31.5 75ZM19.0499 50.0924C19.9301 54.186 20.8984 62.8117 17.7295 64.5661C14.5607 66.3205 12.0079 64.7123 11.1277 63.6889C10.1007 61.6421 9.01511 56.2328 12.8882 50.9696C16.7613 45.7065 19.1966 28.8936 19.9302 21.1451H28.7326L24.7715 40.0047C24.3314 42.6363 24.9475 47.1977 30.9332 44.3907C31.8135 43.8059 33.75 41.7591 34.4542 38.2503L37.9752 21.1451H47.2177C45.1638 28.8936 41.1441 44.5661 41.4962 45.2679C41.9363 46.1451 42.8165 46.1451 44.1369 45.2679C45.1932 44.5661 45.7507 42.3439 45.8974 41.3205L50.2986 41.7591C49.2716 45.1217 46.5135 52.11 43.6968 53.1626C40.1758 54.4784 33.5739 53.6012 33.1338 48.3381C31.0799 51.262 25.3877 55.7065 19.0499 50.0924Z" fill="white"/>
</svg>
