<svg width="26" height="26" viewBox="0 0 26 26" fill="none" xmlns="http://www.w3.org/2000/svg">
<path d="M7.58398 9.75L13.0007 13.5417L18.4173 9.75" stroke="black" stroke-width="1.5" stroke-linecap="round" stroke-linejoin="round"/>
<path d="M2.16699 18.4167V7.58333C2.16699 7.0087 2.39527 6.45759 2.80159 6.05127C3.20792 5.64494 3.75902 5.41666 4.33366 5.41666H21.667C22.2416 5.41666 22.7927 5.64494 23.1991 6.05127C23.6054 6.45759 23.8337 7.0087 23.8337 7.58333V18.4167C23.8337 18.9913 23.6054 19.5424 23.1991 19.9487C22.7927 20.3551 22.2416 20.5833 21.667 20.5833H4.33366C3.75902 20.5833 3.20792 20.3551 2.80159 19.9487C2.39527 19.5424 2.16699 18.9913 2.16699 18.4167Z" stroke="black" stroke-width="1.5"/>
</svg>
