<svg width="34" height="34" viewBox="0 0 34 34" fill="none" xmlns="http://www.w3.org/2000/svg">
<path d="M19.9045 2.83334C22.7921 3.13759 25.4893 4.4183 27.5501 6.46366C29.6109 8.50902 30.9119 11.1965 31.2379 14.0817M19.9045 8.5C21.2978 8.77475 22.5764 9.46196 23.5742 10.4724C24.5721 11.4829 25.2432 12.77 25.5004 14.1667M31.167 23.97V28.22C31.1686 28.6145 31.0878 29.0051 30.9297 29.3666C30.7717 29.7281 30.5399 30.0526 30.2491 30.3193C29.9584 30.586 29.6152 30.7891 29.2414 30.9155C28.8677 31.0419 28.4716 31.0888 28.0787 31.0533C23.7194 30.5797 19.5319 29.09 15.8529 26.7042C12.4299 24.5291 9.52791 21.6271 7.35285 18.2042C4.95866 14.5084 3.4687 10.3006 3.00369 5.92167C2.96828 5.52991 3.01484 5.13508 3.1404 4.7623C3.26595 4.38953 3.46774 4.04698 3.73294 3.75647C3.99813 3.46595 4.32091 3.23384 4.68072 3.07491C5.04054 2.91598 5.4295 2.83371 5.82285 2.83334H10.0729C10.7604 2.82657 11.4269 3.07003 11.9482 3.51834C12.4695 3.96665 12.81 4.58922 12.9062 5.27C13.0856 6.6301 13.4182 7.96553 13.8979 9.25084C14.0885 9.75789 14.1297 10.309 14.0167 10.8387C13.9037 11.3685 13.6412 11.8548 13.2604 12.24L11.4612 14.0392C13.4779 17.5859 16.4145 20.5225 19.9612 22.5392L21.7604 20.74C22.1455 20.3591 22.6318 20.0966 23.1616 19.9836C23.6914 19.8706 24.2425 19.9119 24.7495 20.1025C26.0348 20.5821 27.3703 20.9148 28.7304 21.0942C29.4185 21.1913 30.047 21.5379 30.4963 22.0681C30.9455 22.5984 31.1843 23.2752 31.167 23.97Z" stroke="white" stroke-width="2" stroke-linecap="round" stroke-linejoin="round"/>
</svg>
